<svg width="45" height="45" viewBox="0 0 45 45" fill="none" xmlns="http://www.w3.org/2000/svg">
<g clip-path="url(#clip0_16_196)">
<path d="M22.3503 10.9462C15.9631 10.9462 10.7852 16.119 10.7852 22.4967C10.7852 28.8777 15.9631 34.0505 22.3503 34.0505C28.7376 34.0505 33.9155 28.8777 33.9155 22.4967C33.9155 16.119 28.7376 10.9462 22.3503 10.9462ZM19.8628 8.84212H24.8413C25.0715 8.84212 25.2846 8.72884 25.4186 8.54006C25.5491 8.3547 25.5801 8.11099 25.501 7.89474L23.01 1.16015C22.9069 0.882119 22.6458 0.700195 22.3503 0.700195C22.0549 0.700195 21.7937 0.885551 21.6907 1.16015L19.1997 7.89818C19.1206 8.11442 19.1515 8.3547 19.2821 8.54349C19.4161 8.73228 19.6326 8.84212 19.8628 8.84212ZM33.778 14.6019C33.9086 14.7357 34.0907 14.8078 34.2728 14.8078C34.314 14.8078 34.3552 14.8044 34.3965 14.7975C34.6232 14.7563 34.8122 14.6087 34.9119 14.3994L37.9217 7.87415C38.0454 7.60641 37.987 7.29405 37.7808 7.08467C37.5712 6.87529 37.2551 6.82037 36.9871 6.9405L30.459 9.95082C30.2494 10.0469 30.1016 10.2392 30.0604 10.4657C30.0192 10.6922 30.0948 10.9222 30.2528 11.087L33.778 14.6019ZM43.7145 21.841L36.9665 19.3559C36.75 19.277 36.5095 19.3079 36.3206 19.4383C36.1316 19.5687 36.0216 19.7815 36.0216 20.0115L36.0251 24.9852C36.0251 25.2152 36.1385 25.4315 36.3274 25.5619C36.4477 25.6408 36.5886 25.6855 36.7294 25.6855C36.8119 25.6855 36.8944 25.6717 36.9734 25.6408L43.7214 23.1557C43.9963 23.0562 44.1818 22.7919 44.1818 22.4932C44.1749 22.2049 43.9928 21.944 43.7145 21.841ZM34.9119 30.6008C34.8644 30.4979 34.7927 30.4079 34.703 30.3386C34.6133 30.2693 34.5081 30.2227 34.3965 30.2027C34.1697 30.1649 33.9361 30.237 33.778 30.3983L30.2563 33.9166C30.0948 34.078 30.0192 34.3114 30.0604 34.5379C30.1016 34.761 30.2494 34.9567 30.459 35.0528L36.9906 38.0597C37.0833 38.1043 37.183 38.1215 37.286 38.1215C37.4681 38.1215 37.6468 38.0494 37.7808 37.9155C37.9904 37.7061 38.0454 37.3938 37.9217 37.126L34.9119 30.6008ZM24.8379 36.1546L19.8593 36.1581C19.6291 36.1581 19.4161 36.2713 19.2855 36.4601C19.155 36.6489 19.1241 36.8892 19.1997 37.102L21.6907 43.8435C21.7937 44.1181 22.0549 44.3034 22.3503 44.3034C22.6458 44.3034 22.9069 44.1181 23.01 43.8435L25.501 37.102C25.5801 36.8858 25.5491 36.6455 25.4186 36.4567C25.2846 36.2679 25.0715 36.1546 24.8379 36.1546ZM10.9227 30.3983C10.7612 30.237 10.531 30.1649 10.3042 30.2027C10.0774 30.2438 9.88503 30.3914 9.78882 30.6008L6.779 37.126C6.65531 37.3938 6.71372 37.7096 6.92331 37.9155C7.0247 38.0171 7.15489 38.0851 7.29625 38.1102C7.4376 38.1354 7.58329 38.1166 7.71356 38.0562L14.2451 35.0459C14.3482 34.9985 14.4382 34.9269 14.5076 34.8373C14.577 34.7476 14.6237 34.6426 14.6437 34.531C14.6849 34.3045 14.6093 34.0745 14.4479 33.9132L10.9227 30.3983ZM7.97812 25.6889C8.11899 25.6889 8.25986 25.6443 8.38012 25.5619C8.56909 25.4315 8.68247 25.2152 8.68247 24.9852L8.67904 20.0115C8.67906 19.8985 8.65176 19.7871 8.59946 19.6869C8.54715 19.5867 8.4714 19.5005 8.37863 19.4358C8.28587 19.3711 8.17883 19.3298 8.06663 19.3153C7.95443 19.3007 7.84038 19.3135 7.73417 19.3525L0.986138 21.841C0.851025 21.8905 0.734383 21.9803 0.651981 22.0982C0.569579 22.216 0.525391 22.3563 0.525391 22.5001C0.525391 22.6439 0.569579 22.7842 0.651981 22.902C0.734383 23.0199 0.851025 23.1096 0.986138 23.1591L7.73761 25.6443C7.81664 25.6752 7.89566 25.6889 7.97812 25.6889ZM9.79226 14.3994C9.83984 14.5022 9.91158 14.5921 10.0014 14.6613C10.0912 14.7305 10.1964 14.777 10.308 14.7969C10.4197 14.8168 10.5345 14.8094 10.6427 14.7755C10.7509 14.7415 10.8493 14.682 10.9295 14.6019L14.4479 11.0835C14.6093 10.9188 14.6815 10.6888 14.6403 10.4623C14.599 10.2392 14.4513 10.0469 14.2417 9.95082L7.70669 6.94394C7.43869 6.82037 7.12603 6.87872 6.91644 7.0881C6.70685 7.29749 6.65188 7.60984 6.77557 7.87758L9.79226 14.3994Z" fill="#FCC21B"/>
</g>
<defs>
<clipPath id="clip0_16_196">
<rect width="43.9791" height="43.9362" fill="white" transform="translate(0.361084 0.531982)"/>
</clipPath>
</defs>
</svg>
